<svg xmlns="http://www.w3.org/2000/svg" viewBox="0 0 120 120" role="img" aria-labelledby="title">
  <title>Imperium Logo</title>
  <defs>
    <linearGradient id="chip" x1="0%" y1="0%" x2="100%" y2="100%">
      <stop offset="0%" stop-color="#f7ce46"/>
      <stop offset="100%" stop-color="#d7a90b"/>
    </linearGradient>
  </defs>
  <rect x="45" y="45" width="30" height="30" rx="6" fill="url(#chip)" stroke="#f5f5f5" stroke-width="2"/>
  <rect x="52" y="52" width="16" height="16" rx="3" fill="#111" opacity="0.65"/>
  <g fill="none" stroke="#f7ce46" stroke-width="3" stroke-linecap="round">
    <path d="M40 40v-8"/><path d="M60 40v-8"/><path d="M80 40v-8"/>
    <path d="M40 88v8"/><path d="M60 88v8"/><path d="M80 88v8"/>
    <path d="M40 40h-8"/><path d="M40 60h-8"/><path d="M40 80h-8"/>
    <path d="M88 40h8"/><path d="M88 60h8"/><path d="M88 80h8"/>
  </g>
  <g fill="none" stroke="#45b854" stroke-width="4" stroke-linecap="round">
    <path d="M30 90c-8-10-12-22-12-34 0-10 3-20 9-28"/>
    <path d="M22 84c-4-7-6-15-6-23 0-7 1-14 4-20"/>
    <path d="M90 90c8-10 12-22 12-34 0-10-3-20-9-28"/>
    <path d="M98 84c4-7 6-15 6-23 0-7-1-14-4-20"/>
  </g>
  <g fill="#45b854">
    <circle cx="26" cy="44" r="3"/>
    <circle cx="24" cy="64" r="3"/>
    <circle cx="28" cy="76" r="3"/>
    <circle cx="94" cy="44" r="3"/>
    <circle cx="96" cy="64" r="3"/>
    <circle cx="92" cy="76" r="3"/>
  </g>
</svg>
